<mxfile host="app.diagrams.net" modified="2022-04-27T13:00:05.502Z" agent="5.0 (Macintosh; Intel Mac OS X 10_15_7) AppleWebKit/537.36 (KHTML, like Gecko) Chrome/100.0.4896.127 Safari/537.36" etag="e0KO4EvJWD5mf215sabm" version="17.4.6" type="github">
  <diagram id="B915AKZCTPvj_rJrDx6c" name="第 1 页">
    <mxGraphModel dx="1426" dy="794" grid="0" gridSize="10" guides="1" tooltips="1" connect="1" arrows="1" fold="1" page="1" pageScale="1" pageWidth="827" pageHeight="1169" math="0" shadow="0">
      <root>
        <mxCell id="0" />
        <mxCell id="1" parent="0" />
        <mxCell id="5i2Ev3xUylhgh89HY7Po-1" value="Distributed System" style="rounded=0;whiteSpace=wrap;html=1;align=left;verticalAlign=top;fillColor=#dae8fc;strokeColor=#6c8ebf;fontStyle=1" vertex="1" parent="1">
          <mxGeometry x="80" y="280" width="680" height="340" as="geometry" />
        </mxCell>
        <mxCell id="5i2Ev3xUylhgh89HY7Po-12" style="edgeStyle=orthogonalEdgeStyle;curved=1;rounded=0;orthogonalLoop=1;jettySize=auto;html=1;entryX=0.5;entryY=0;entryDx=0;entryDy=0;startArrow=none;startFill=0;" edge="1" parent="1" source="5i2Ev3xUylhgh89HY7Po-2" target="5i2Ev3xUylhgh89HY7Po-1">
          <mxGeometry relative="1" as="geometry" />
        </mxCell>
        <mxCell id="5i2Ev3xUylhgh89HY7Po-18" value="read" style="edgeLabel;html=1;align=center;verticalAlign=middle;resizable=0;points=[];fontSize=14;" vertex="1" connectable="0" parent="5i2Ev3xUylhgh89HY7Po-12">
          <mxGeometry x="-0.3415" y="17" relative="1" as="geometry">
            <mxPoint as="offset" />
          </mxGeometry>
        </mxCell>
        <mxCell id="5i2Ev3xUylhgh89HY7Po-2" value="Client-1" style="rounded=0;whiteSpace=wrap;html=1;" vertex="1" parent="1">
          <mxGeometry x="225" y="71" width="120" height="60" as="geometry" />
        </mxCell>
        <mxCell id="5i2Ev3xUylhgh89HY7Po-7" style="edgeStyle=orthogonalEdgeStyle;curved=1;rounded=0;orthogonalLoop=1;jettySize=auto;html=1;entryX=0.25;entryY=0.25;entryDx=0;entryDy=0;entryPerimeter=0;" edge="1" parent="1" source="5i2Ev3xUylhgh89HY7Po-3" target="5i2Ev3xUylhgh89HY7Po-5">
          <mxGeometry relative="1" as="geometry" />
        </mxCell>
        <mxCell id="5i2Ev3xUylhgh89HY7Po-3" value="software-A&lt;br&gt;Node-1" style="rounded=0;whiteSpace=wrap;html=1;" vertex="1" parent="1">
          <mxGeometry x="190" y="350" width="100" height="60" as="geometry" />
        </mxCell>
        <mxCell id="5i2Ev3xUylhgh89HY7Po-6" style="edgeStyle=orthogonalEdgeStyle;rounded=0;orthogonalLoop=1;jettySize=auto;html=1;entryX=0.31;entryY=0.8;entryDx=0;entryDy=0;entryPerimeter=0;curved=1;" edge="1" parent="1" source="5i2Ev3xUylhgh89HY7Po-4" target="5i2Ev3xUylhgh89HY7Po-5">
          <mxGeometry relative="1" as="geometry">
            <Array as="points">
              <mxPoint x="387" y="520" />
            </Array>
          </mxGeometry>
        </mxCell>
        <mxCell id="5i2Ev3xUylhgh89HY7Po-4" value="software-A&lt;br&gt;Node-2" style="rounded=0;whiteSpace=wrap;html=1;" vertex="1" parent="1">
          <mxGeometry x="190" y="490" width="100" height="60" as="geometry" />
        </mxCell>
        <mxCell id="5i2Ev3xUylhgh89HY7Po-5" value="network" style="ellipse;shape=cloud;whiteSpace=wrap;html=1;" vertex="1" parent="1">
          <mxGeometry x="350" y="410" width="120" height="80" as="geometry" />
        </mxCell>
        <mxCell id="5i2Ev3xUylhgh89HY7Po-11" style="edgeStyle=orthogonalEdgeStyle;curved=1;rounded=0;orthogonalLoop=1;jettySize=auto;html=1;entryX=0.875;entryY=0.5;entryDx=0;entryDy=0;entryPerimeter=0;" edge="1" parent="1" source="5i2Ev3xUylhgh89HY7Po-8" target="5i2Ev3xUylhgh89HY7Po-5">
          <mxGeometry relative="1" as="geometry" />
        </mxCell>
        <mxCell id="5i2Ev3xUylhgh89HY7Po-8" value="software-B&lt;br&gt;Node-3" style="rounded=0;whiteSpace=wrap;html=1;" vertex="1" parent="1">
          <mxGeometry x="530" y="350" width="100" height="60" as="geometry" />
        </mxCell>
        <mxCell id="5i2Ev3xUylhgh89HY7Po-10" style="edgeStyle=orthogonalEdgeStyle;curved=1;rounded=0;orthogonalLoop=1;jettySize=auto;html=1;entryX=0.8;entryY=0.8;entryDx=0;entryDy=0;entryPerimeter=0;" edge="1" parent="1" source="5i2Ev3xUylhgh89HY7Po-9" target="5i2Ev3xUylhgh89HY7Po-5">
          <mxGeometry relative="1" as="geometry" />
        </mxCell>
        <mxCell id="5i2Ev3xUylhgh89HY7Po-9" value="software-X&lt;br&gt;Node-..." style="rounded=0;whiteSpace=wrap;html=1;" vertex="1" parent="1">
          <mxGeometry x="530" y="490" width="100" height="60" as="geometry" />
        </mxCell>
        <mxCell id="5i2Ev3xUylhgh89HY7Po-13" value="CAP是对分布式系统的考量，&lt;br style=&quot;font-size: 16px;&quot;&gt;不包括访问分布式系统的客户端" style="text;html=1;strokeColor=none;fillColor=none;align=center;verticalAlign=middle;whiteSpace=wrap;rounded=0;fontStyle=1;fontSize=16;" vertex="1" parent="1">
          <mxGeometry x="110" y="210" width="250" height="40" as="geometry" />
        </mxCell>
        <mxCell id="5i2Ev3xUylhgh89HY7Po-16" style="edgeStyle=orthogonalEdgeStyle;curved=1;rounded=0;orthogonalLoop=1;jettySize=auto;html=1;entryX=0.5;entryY=0;entryDx=0;entryDy=0;fontSize=16;startArrow=none;startFill=0;" edge="1" parent="1" source="5i2Ev3xUylhgh89HY7Po-14" target="5i2Ev3xUylhgh89HY7Po-1">
          <mxGeometry relative="1" as="geometry" />
        </mxCell>
        <mxCell id="5i2Ev3xUylhgh89HY7Po-19" value="write" style="edgeLabel;html=1;align=center;verticalAlign=middle;resizable=0;points=[];fontSize=14;" vertex="1" connectable="0" parent="5i2Ev3xUylhgh89HY7Po-16">
          <mxGeometry x="-0.5353" y="-3" relative="1" as="geometry">
            <mxPoint y="1" as="offset" />
          </mxGeometry>
        </mxCell>
        <mxCell id="5i2Ev3xUylhgh89HY7Po-14" value="Client-1" style="rounded=0;whiteSpace=wrap;html=1;" vertex="1" parent="1">
          <mxGeometry x="381" y="71" width="120" height="60" as="geometry" />
        </mxCell>
        <mxCell id="5i2Ev3xUylhgh89HY7Po-17" style="edgeStyle=orthogonalEdgeStyle;curved=1;rounded=0;orthogonalLoop=1;jettySize=auto;html=1;entryX=0.5;entryY=0;entryDx=0;entryDy=0;fontSize=16;startArrow=none;startFill=0;" edge="1" parent="1" source="5i2Ev3xUylhgh89HY7Po-15" target="5i2Ev3xUylhgh89HY7Po-1">
          <mxGeometry relative="1" as="geometry" />
        </mxCell>
        <mxCell id="5i2Ev3xUylhgh89HY7Po-20" value="read/write" style="edgeLabel;html=1;align=center;verticalAlign=middle;resizable=0;points=[];fontSize=14;" vertex="1" connectable="0" parent="5i2Ev3xUylhgh89HY7Po-17">
          <mxGeometry x="-0.0394" y="2" relative="1" as="geometry">
            <mxPoint as="offset" />
          </mxGeometry>
        </mxCell>
        <mxCell id="5i2Ev3xUylhgh89HY7Po-15" value="Client-..." style="rounded=0;whiteSpace=wrap;html=1;" vertex="1" parent="1">
          <mxGeometry x="541" y="71" width="120" height="60" as="geometry" />
        </mxCell>
      </root>
    </mxGraphModel>
  </diagram>
</mxfile>
